<svg xmlns="http://www.w3.org/2000/svg" xmlns:xlink="http://www.w3.org/1999/xlink" width="800" zoomAndPan="magnify" viewBox="0 0 600 149.999998" height="200" preserveAspectRatio="xMidYMid meet" version="1.0"><defs><g/><clipPath id="74208d90df"><path d="M 19.4375 6.234375 L 580.414062 6.234375 L 580.414062 143.484375 L 19.4375 143.484375 Z M 19.4375 6.234375 " clip-rule="nonzero"/></clipPath><clipPath id="aae5dd58b8"><path d="M 36.148438 19.160156 L 272.34375 19.160156 L 272.34375 130.839844 L 36.148438 130.839844 Z M 36.148438 19.160156 " clip-rule="nonzero"/></clipPath></defs><g clip-path="url(#74208d90df)"><path stroke-linecap="butt" transform="matrix(0.75, 0, 0, 0.75, 19.435553, 6.234739)" fill="none" stroke-linejoin="miter" d="M 0.00259655 -0.000484902 L 748.164051 -0.000484902 L 748.164051 183.358889 L 0.00259655 183.358889 Z M 0.00259655 -0.000484902 " stroke="#34495e" stroke-width="16" stroke-opacity="1" stroke-miterlimit="4"/></g><g clip-path="url(#aae5dd58b8)"><path fill="#2c3e50" d="M 36.148438 19.160156 L 272.167969 19.160156 L 272.167969 130.839844 L 36.148438 130.839844 Z M 36.148438 19.160156 " fill-opacity="1" fill-rule="nonzero"/></g><g fill="#ffffff" fill-opacity="1"><g transform="translate(55.635313, 95.489154)"><g><path d="M 4.5 0 L 12.96875 0 L 12.96875 -22.609375 L 22.078125 -9.265625 L 27.96875 -9.265625 L 37.09375 -22.5625 L 37.09375 0 L 45.546875 0 L 45.546875 -37.515625 L 38.375 -37.515625 L 25.078125 -18.0625 L 11.734375 -37.515625 L 4.5 -37.515625 Z M 4.5 0 "/></g></g></g><g fill="#ffffff" fill-opacity="1"><g transform="translate(109.761979, 95.489154)"><g><path d="M 4.5 0 L 29.75 0 L 29.75 -7.234375 L 12.96875 -7.234375 L 12.96875 -15.4375 L 27.703125 -15.4375 L 27.703125 -22.5625 L 12.96875 -22.5625 L 12.96875 -30.328125 L 29.15625 -30.328125 L 29.15625 -37.515625 L 4.5 -37.515625 Z M 4.5 0 "/></g></g></g><g fill="#ffffff" fill-opacity="1"><g transform="translate(146.311185, 95.489154)"><g><path d="M 4.5 0 L 19.34375 0 C 31.1875 0 39.125 -7.5625 39.125 -18.75 C 39.125 -29.90625 31.1875 -37.515625 19.34375 -37.515625 L 4.5 -37.515625 Z M 13.015625 -7.828125 L 13.015625 -29.6875 L 19.078125 -29.6875 C 25.828125 -29.6875 30.390625 -25.34375 30.390625 -18.75 C 30.390625 -12.171875 25.828125 -7.828125 19.1875 -7.828125 Z M 13.015625 -7.828125 "/></g></g></g><g fill="#ffffff" fill-opacity="1"><g transform="translate(191.7563, 95.489154)"><g><path d="M 4.5 0 L 13.015625 0 L 13.015625 -37.515625 L 4.5 -37.515625 Z M 4.5 0 "/></g></g></g><g fill="#ffffff" fill-opacity="1"><g transform="translate(213.353944, 95.489154)"><g><path d="M 1.453125 0 L 11.46875 0 L 16.609375 -7.9375 L 19.78125 -12.703125 L 22.890625 -7.9375 L 28.03125 0 L 38.046875 0 L 25.296875 -19.234375 L 37.40625 -37.515625 L 27.703125 -37.515625 L 19.71875 -25.34375 L 16.296875 -30.546875 L 11.796875 -37.515625 L 2.03125 -37.515625 L 14.203125 -19.1875 Z M 1.453125 0 "/></g></g></g><g fill="#34495e" fill-opacity="1"><g transform="translate(281.364473, 92.688758)"><g><path d="M 21.484375 0.796875 C 31.828125 0.796875 39.65625 -5.46875 41.265625 -15 L 30.28125 -15 C 28.9375 -11.46875 25.78125 -9.21875 21.703125 -9.21875 C 16.453125 -9.21875 12.8125 -13.125 12.8125 -18.75 C 12.8125 -24.4375 16.5 -28.296875 21.8125 -28.296875 C 25.71875 -28.296875 29 -26.09375 30.125 -22.71875 L 41.046875 -22.71875 C 39.125 -32.203125 31.40625 -38.3125 21.390625 -38.3125 C 9.8125 -38.3125 1.828125 -30.328125 1.828125 -18.75 C 1.828125 -7.1875 9.8125 0.796875 21.484375 0.796875 Z M 21.484375 0.796875 "/></g></g></g><g fill="#34495e" fill-opacity="1"><g transform="translate(324.346711, 92.688758)"><g><path d="M 22.234375 0.796875 C 34.1875 0.796875 42.65625 -7.28125 42.65625 -18.75 C 42.65625 -30.234375 34.1875 -38.3125 22.234375 -38.3125 C 10.296875 -38.3125 1.828125 -30.234375 1.828125 -18.75 C 1.828125 -7.28125 10.296875 0.796875 22.234375 0.796875 Z M 12.8125 -18.75 C 12.8125 -24.390625 16.71875 -28.296875 22.234375 -28.296875 C 27.8125 -28.296875 31.671875 -24.390625 31.671875 -18.75 C 31.671875 -13.125 27.8125 -9.21875 22.234375 -9.21875 C 16.71875 -9.21875 12.8125 -13.125 12.8125 -18.75 Z M 12.8125 -18.75 "/></g></g></g><g fill="#34495e" fill-opacity="1"><g transform="translate(368.883184, 92.688758)"><g><path d="M 3.96875 0 L 14.6875 0 L 14.6875 -19.140625 L 28.9375 0 L 37.734375 0 L 37.734375 -37.515625 L 27.0625 -37.515625 L 27.0625 -18.484375 L 12.8125 -37.515625 L 3.96875 -37.515625 Z M 3.96875 0 "/></g></g></g><g fill="#34495e" fill-opacity="1"><g transform="translate(410.632772, 92.688758)"><g><path d="M 3.96875 0 L 14.6875 0 L 14.6875 -19.140625 L 28.9375 0 L 37.734375 0 L 37.734375 -37.515625 L 27.0625 -37.515625 L 27.0625 -18.484375 L 12.8125 -37.515625 L 3.96875 -37.515625 Z M 3.96875 0 "/></g></g></g><g fill="#34495e" fill-opacity="1"><g transform="translate(452.38236, 92.688758)"><g><path d="M 3.96875 0 L 30.28125 0 L 30.28125 -8.84375 L 14.6875 -8.84375 L 14.6875 -14.625 L 28.25 -14.625 L 28.25 -23.3125 L 14.6875 -23.3125 L 14.6875 -28.78125 L 29.6875 -28.78125 L 29.6875 -37.515625 L 3.96875 -37.515625 Z M 3.96875 0 "/></g></g></g><g fill="#34495e" fill-opacity="1"><g transform="translate(485.074585, 92.688758)"><g><path d="M 21.484375 0.796875 C 31.828125 0.796875 39.65625 -5.46875 41.265625 -15 L 30.28125 -15 C 28.9375 -11.46875 25.78125 -9.21875 21.703125 -9.21875 C 16.453125 -9.21875 12.8125 -13.125 12.8125 -18.75 C 12.8125 -24.4375 16.5 -28.296875 21.8125 -28.296875 C 25.71875 -28.296875 29 -26.09375 30.125 -22.71875 L 41.046875 -22.71875 C 39.125 -32.203125 31.40625 -38.3125 21.390625 -38.3125 C 9.8125 -38.3125 1.828125 -30.328125 1.828125 -18.75 C 1.828125 -7.1875 9.8125 0.796875 21.484375 0.796875 Z M 21.484375 0.796875 "/></g></g></g><g fill="#34495e" fill-opacity="1"><g transform="translate(528.056822, 92.688758)"><g><path d="M 12.921875 0 L 23.6875 0 L 23.6875 -27.5 L 35.109375 -27.5 L 35.109375 -37.515625 L 1.5 -37.515625 L 1.5 -27.5 L 12.921875 -27.5 Z M 12.921875 0 "/></g></g></g></svg>